HIERARCHY
ROOT Hips
{
	OFFSET 0.000000 0.000000 0.000000 
	CHANNELS 6 Xposition Yposition Zposition Zrotation Yrotation Xrotation
	JOINT LeftUpLeg
	{
		OFFSET 1.363060 -1.794630 0.839290 
		CHANNELS 3 Zrotation Yrotation Xrotation
		JOINT LeftLeg
		{
			OFFSET 2.448110 -6.726130 0.000000 
			CHANNELS 3 Zrotation Yrotation Xrotation
			JOINT LeftFoot
			{
				OFFSET 2.562200 -7.039590 0.000000 
				CHANNELS 3 Zrotation Yrotation Xrotation
				JOINT LeftToeBase
				{
					OFFSET 0.157640 -0.433110 2.322550 
					CHANNELS 3 Zrotation Yrotation Xrotation
					End Site
					{
						OFFSET 0.000000 0.000000 0.000000 
					}
				}
			}
		}
	}
	JOINT RightUpLeg
	{
		OFFSET -1.305520 -1.794630 0.839290 
		CHANNELS 3 Zrotation Yrotation Xrotation
		JOINT RightLeg
		{
			OFFSET -2.542530 -6.985550 0.000000 
			CHANNELS 3 Zrotation Yrotation Xrotation
			JOINT RightFoot
			{
				OFFSET -2.568260 -7.056230 0.000000 
				CHANNELS 3 Zrotation Yrotation Xrotation
				JOINT RightToeBase
				{
					OFFSET -0.164730 -0.452590 2.363150 
					CHANNELS 3 Zrotation Yrotation Xrotation
					End Site
					{
						OFFSET 0.000000 0.000000 0.000000 
					}
				}
			}
		}
	}
	JOINT Spine
	{
		OFFSET 0.028270 2.035590 -0.193380 
		CHANNELS 3 Zrotation Yrotation Xrotation
		JOINT Spine1
		{
			OFFSET 0.056720 2.048850 -0.042750 
			CHANNELS 3 Zrotation Yrotation Xrotation
			JOINT Neck1
			{
				OFFSET -0.054170 1.746240 0.172020 
				CHANNELS 3 Zrotation Yrotation Xrotation
				JOINT Head
				{
					OFFSET 0.104070 1.761360 -0.123970 
					CHANNELS 3 Zrotation Yrotation Xrotation
					End Site
					{
						OFFSET 0.000000 0.000000 0.000000 
					}
				}
			}
			JOINT LeftArm
			{
				OFFSET 3.362410 1.200890 -0.311210 
				CHANNELS 3 Zrotation Yrotation Xrotation
				JOINT LeftForeArm
				{
					OFFSET 4.983000 -0.000000 -0.000000 
					CHANNELS 3 Zrotation Yrotation Xrotation
					JOINT LeftHand
					{
						OFFSET 3.483560 -0.000000 -0.000000 
						CHANNELS 3 Zrotation Yrotation Xrotation
						JOINT LeftHandIndex1
						{
							OFFSET 0.715260 -0.000000 -0.000000 
							CHANNELS 3 Zrotation Yrotation Xrotation
							End Site
							{
								OFFSET 0.000000 0.000000 0.000000 
							}
						}
					}
				}
			}
			JOINT RightArm
			{
				OFFSET -3.136600 1.374050 -0.404650 
				CHANNELS 3 Zrotation Yrotation Xrotation
				JOINT RightForeArm
				{
					OFFSET -5.241900 -0.000000 -0.000000 
					CHANNELS 3 Zrotation Yrotation Xrotation
					JOINT RightHand
					{
						OFFSET -3.444170 -0.000000 -0.000000 
						CHANNELS 3 Zrotation Yrotation Xrotation
						JOINT RightHandIndex1
						{
							OFFSET -0.622530 -0.000000 -0.000000 
							CHANNELS 3 Zrotation Yrotation Xrotation
							End Site
							{
								OFFSET 0.000000 0.000000 0.000000 
							}
						}
					}
				}
			}
		}
	}
}
MOTION
Frames: 16
Frame Time: 0.041667
31.027327 17.746054 8.115462 -4.390600 -16.138368 4.800921 -14.434575 -0.646785 -6.225006 1.981118 9.875882 26.537015 1.111756 -2.979356 -20.580183 0.003600 -0.390100 -1.071800 24.585649 3.631024 -7.255314 -2.962042 -10.656423 29.084081 -0.964781 6.670036 -16.186164 -0.040300 -1.295800 3.563200 1.907496 -1.706404 -4.409109 4.442290 -0.751034 -2.753450 9.041980 -15.716604 15.420963 5.010800 -8.063700 11.046900 -94.814422 10.356641 21.968366 10.993039 -19.464878 -1.834488 1.452001 1.944277 6.089159 -7.125000 0.000000 0.000000 86.508402 -7.009224 27.763221 -13.233606 20.501187 -2.375039 -0.041442 -0.122470 -4.866435 7.125000 0.000000 0.000000 
31.038969 17.750987 8.118323 -4.298500 -16.086735 4.685333 -14.587949 -0.631692 -6.097470 1.972531 9.859743 26.480561 1.097877 -2.896852 -20.452724 0.004300 -0.422400 -1.160600 24.433182 3.870546 -7.064267 -2.968792 -10.668924 29.117935 -0.968228 6.805326 -16.194103 -0.110700 -2.145100 5.906700 1.927054 -1.677531 -4.391908 4.410559 -0.737500 -2.696438 8.103084 -14.935727 16.201866 4.554600 -7.693000 11.245400 -94.820112 10.176115 21.982696 11.131491 -19.675865 -1.872382 1.397874 1.942221 5.387733 -7.125000 0.000000 0.000000 86.407170 -6.748889 27.506919 -13.367247 20.683276 -2.419691 -0.037067 -0.121441 -5.454587 7.125000 0.000000 0.000000 
31.049527 17.744278 8.116448 -4.265194 -15.975105 4.623261 -14.630361 -0.705974 -6.199674 2.014339 9.933243 26.724065 1.091149 -3.040401 -20.401989 0.000100 -0.064300 -0.176500 24.391964 3.454558 -7.124535 -2.942606 -10.632575 28.989518 -0.961915 6.515698 -16.210940 -0.034900 -1.205900 3.315700 1.937176 -1.634714 -4.382479 4.350002 -0.718576 -2.656040 7.505785 -14.262020 16.906243 4.287400 -7.381800 11.483200 -94.768302 10.102714 22.069059 11.390317 -20.053211 -1.944278 1.353828 1.938802 4.956607 -7.125000 0.000000 0.000000 86.400402 -6.487747 27.049111 -13.446903 20.792754 -2.445621 -0.034873 -0.119052 -5.660015 7.125000 0.000000 0.000000 
31.058703 17.737371 8.115363 -4.384169 -15.852426 4.609818 -14.491152 -0.688902 -6.298938 2.048905 9.988635 26.914192 1.092252 -3.326659 -20.437009 0.000000 0.031500 0.086700 24.534745 3.133622 -7.131087 -2.914184 -10.595541 28.855306 -0.959003 6.161807 -16.277571 -0.001100 -0.215900 0.593300 1.974452 -1.608544 -4.351348 4.265421 -0.711819 -2.547156 7.205813 -13.629361 17.688298 4.201100 -7.101200 11.822700 -94.608206 9.981950 22.617768 11.666061 -20.454656 -2.025338 1.363615 1.914853 4.378121 -7.125000 0.000000 0.000000 86.393330 -6.153397 26.467529 -13.394570 20.724349 -2.426841 -0.043478 -0.117062 -5.583935 7.125000 0.000000 0.000000 
31.069457 17.736187 8.115659 -4.663787 -15.821494 4.610483 -14.223053 -0.786323 -6.301384 2.084038 10.059945 27.148957 1.118084 -3.343726 -20.657671 0.000400 -0.128000 -0.351600 24.828065 3.152604 -6.963550 -2.885152 -10.550667 28.694303 -0.951505 6.012519 -16.233746 -0.000000 0.031600 -0.086900 2.064070 -1.557665 -4.325419 4.191166 -0.692233 -2.472255 6.879357 -12.857392 18.507510 4.117400 -6.766200 12.134300 -94.519020 9.839094 23.147865 11.967945 -20.894892 -2.113940 1.352638 1.913055 3.564771 -7.125000 0.000000 0.000000 86.291566 -5.779912 25.912439 -13.320715 20.625873 -2.400619 -0.052068 -0.114061 -5.473214 7.125000 0.000000 0.000000 
31.079620 17.736483 8.113291 -4.997176 -15.810484 4.644620 -13.883195 -0.667973 -6.377296 2.109876 10.113966 27.328034 1.133043 -3.252062 -20.772179 0.008800 -0.604800 -1.662000 25.220121 3.392912 -6.776302 -2.860531 -10.514398 28.564177 -0.941011 5.711115 -16.202261 -0.000000 0.043800 -0.120400 2.185294 -1.488232 -4.310640 4.168009 -0.659879 -2.457196 6.544695 -12.009881 19.091702 4.038800 -6.405600 12.279100 -94.528638 9.781790 23.530080 12.304149 -21.380905 -2.212031 1.296860 1.927042 2.640437 -7.125000 0.000000 0.000000 86.181605 -5.407083 25.446541 -13.348092 20.663132 -2.409177 -0.049996 -0.112618 -5.498772 7.125000 0.000000 0.000000 
31.090770 17.736779 8.116350 -5.008513 -15.707573 4.641394 -13.856642 -0.320722 -6.573567 2.134333 10.148444 27.449219 1.127792 -3.553347 -20.755111 0.018600 -0.880900 -2.421200 25.213992 3.327634 -6.730643 -2.844359 -10.486664 28.468745 -0.938041 5.671320 -16.186729 0.000000 -0.043500 0.119400 2.234231 -1.475106 -4.256411 4.147763 -0.655839 -2.286411 6.165963 -11.196698 19.728650 3.909100 -6.049800 12.512500 -94.479558 9.615550 23.797854 12.709891 -21.957922 -2.328292 1.199609 1.968375 2.105205 -7.125000 0.000000 0.000000 86.102972 -5.019457 25.210912 -13.474704 20.841148 -2.452794 -0.046845 -0.111544 -5.791889 7.125000 0.000000 0.000000 
31.102412 17.735102 8.122566 -4.963211 -15.627649 4.641470 -13.915108 -0.205882 -6.693457 2.156080 10.175196 27.545300 1.120604 -3.906286 -20.731953 0.013700 -0.755100 -2.075200 25.108478 3.163002 -6.746509 -2.834920 -10.470152 28.411023 -0.941634 5.733289 -16.212453 0.000000 -0.025400 0.069800 2.262580 -1.422966 -4.177897 4.111130 -0.633277 -2.027418 5.729588 -10.430867 20.448731 3.725600 -5.710900 12.829000 -94.408801 9.327309 23.938805 13.067844 -22.471407 -2.437408 1.138850 1.972698 1.913952 -7.125000 0.000000 0.000000 85.986476 -4.652488 25.047770 -13.569666 20.979097 -2.487935 -0.055579 -0.112266 -6.156730 7.125000 0.000000 0.000000 
31.113167 17.730070 8.122072 -5.146050 -15.597862 4.590393 -13.755974 -0.304630 -6.612588 2.167345 10.197391 27.617558 1.115933 -3.846163 -20.683653 0.014900 -0.788500 -2.167000 25.322699 3.414141 -6.525199 -2.826372 -10.466828 28.385495 -0.943193 5.490166 -16.300798 -0.001000 -0.202600 0.556600 2.320642 -1.282499 -4.104750 4.029142 -0.567038 -1.888796 5.365469 -9.679779 21.071624 3.575300 -5.378900 13.066500 -94.291169 9.092801 24.185611 13.309220 -22.820473 -2.518280 1.135473 1.920110 1.578608 -7.125000 0.000000 0.000000 85.920414 -4.295832 24.445008 -13.575043 20.992637 -2.494698 -0.073500 -0.115172 -6.044096 7.125000 0.000000 0.000000 
31.124810 17.724742 8.123454 -5.158510 -15.531341 4.400240 -13.794913 -0.405605 -6.409909 2.175046 10.223896 27.689656 1.117764 -3.636800 -20.676960 0.017400 -0.852000 -2.341700 25.348726 3.525260 -6.223284 -2.815540 -10.463427 28.353430 -0.948870 5.280807 -16.433353 -0.000600 -0.158000 0.434200 2.345203 -1.149991 -4.007217 3.969439 -0.504770 -1.722336 5.146288 -8.933179 21.747629 3.504500 -5.047300 13.350600 -94.156392 8.838701 24.587617 13.588349 -23.211584 -2.605181 1.072732 1.904173 0.732102 -7.125000 0.000000 0.000000 85.883151 -3.985261 24.029946 -13.742440 21.228347 -2.555559 -0.074713 -0.116378 -6.240757 7.125000 0.000000 0.000000 
31.134578 17.724841 8.129472 -5.136775 -15.527481 4.302011 -13.856014 -0.396922 -6.307482 2.182263 10.242441 27.742719 1.124519 -3.624069 -20.734321 0.012600 -0.724100 -1.989900 25.298990 3.497816 -6.098080 -2.809757 -10.459971 28.331740 -0.957463 5.259615 -16.535967 -0.000100 0.050300 -0.138100 2.389689 -1.021798 -3.942868 3.971266 -0.440876 -1.554724 4.763870 -8.128445 22.398256 3.349400 -4.703100 13.605900 -94.086965 8.638217 24.919665 13.997429 -23.767229 -2.723115 0.896136 1.998543 -0.240697 -7.125000 0.000000 0.000000 85.771818 -3.891999 24.058216 -14.084602 21.700883 -2.675873 -0.062497 -0.114684 -6.915668 7.125000 0.000000 0.000000 
31.143359 17.723361 8.135787 -5.228398 -15.590501 4.249034 -13.795317 -0.292654 -6.217346 2.181984 10.240400 27.735416 1.123759 -3.709056 -20.738448 0.004900 -0.454000 -1.247500 25.395077 3.668382 -5.942576 -2.810905 -10.470263 28.354858 -0.956701 5.146313 -16.564460 0.000000 0.035600 -0.097900 2.437442 -0.872707 -3.904333 3.889467 -0.365490 -1.458091 4.150573 -7.271588 22.897170 3.047900 -4.337100 13.712500 -93.952456 8.612485 25.247725 14.478355 -24.398658 -2.863031 0.642698 2.192563 -1.064475 -7.125000 0.000000 0.000000 85.712720 -3.940819 23.782893 -14.408493 22.149381 -2.792707 -0.059161 -0.110337 -6.940000 7.125000 0.000000 0.000000 
31.156284 17.721486 8.141806 -5.155484 -15.521692 4.131380 -13.917015 -0.237154 -6.113988 2.178603 10.228277 27.695503 1.115547 -3.883367 -20.691365 0.000200 -0.081200 -0.223000 25.295217 3.767313 -5.746779 -2.813512 -10.485690 28.391611 -0.952920 5.008165 -16.578987 -0.001900 -0.283700 0.779400 2.458701 -0.772711 -3.851797 3.839531 -0.314713 -1.346036 3.614246 -6.477993 23.459904 2.796600 -4.009000 13.903300 -93.886057 8.529614 25.466992 14.871509 -24.970745 -3.021205 0.801805 1.961050 -1.728523 -7.125000 0.000000 0.000000 85.643337 -3.777841 23.450843 -14.598185 22.411588 -2.863039 -0.058507 -0.108443 -6.915232 7.125000 0.000000 0.000000 
31.175426 17.724150 8.149896 -4.894902 -15.309303 4.118341 -14.243437 -0.226068 -6.201438 2.177103 10.213714 27.654216 1.109953 -4.143329 -20.677154 0.000100 -0.059000 -0.162200 24.884269 3.468708 -5.871199 -2.820595 -10.495021 28.424284 -0.958765 5.201138 -16.586751 -0.009700 -0.636600 1.749300 2.493436 -0.785319 -3.823100 3.910132 -0.318674 -1.184181 3.333757 -5.737969 24.095717 2.737500 -3.735600 14.214800 -93.954663 8.292453 25.619484 15.217071 -25.442324 -3.138439 0.724781 1.907545 -2.432836 -7.125000 0.000000 0.000000 85.409559 -3.388015 23.294615 -14.623159 22.447731 -2.873242 -0.059923 -0.108892 -7.176134 7.125000 0.000000 0.000000 
31.196837 17.721782 8.159862 -4.629918 -15.062226 4.094063 -14.590644 -0.278835 -6.258813 2.178625 10.209786 27.643362 1.107350 -4.296986 -20.675887 0.001400 -0.240900 -0.662000 24.428103 2.830684 -6.176185 -2.827951 -10.499808 28.447401 -0.964276 5.598326 -16.529704 -0.008300 -0.587600 1.614800 2.513871 -0.830826 -3.794300 3.940768 -0.340746 -1.034527 3.243696 -4.986242 24.603573 2.791600 -3.452600 14.425500 -93.974676 8.083712 25.888043 15.533789 -25.869491 -3.246604 0.657334 1.894784 -3.300364 -7.125000 0.000000 0.000000 85.177176 -3.119323 23.287320 -14.716544 22.584340 -2.910210 -0.065060 -0.107930 -7.635303 7.125000 0.000000 0.000000 
31.215090 17.717441 8.165584 -4.563164 -14.877787 3.986466 -14.732312 -0.572923 -6.080955 2.180595 10.217881 27.662615 1.114701 -4.264132 -20.735106 0.000200 -0.098400 -0.270400 24.272331 2.452327 -6.254747 -2.832223 -10.511434 28.479489 -0.964715 5.724207 -16.500108 -0.004600 -0.436200 1.198500 2.562116 -0.841589 -3.743559 3.947703 -0.345687 -0.951724 3.087871 -4.194123 25.098209 2.785200 -3.140100 14.610200 -93.968048 7.994286 25.938509 16.030935 -26.535575 -3.431252 0.641313 1.824643 -4.119681 -7.125000 0.000000 0.000000 84.983424 -3.010707 23.736137 -14.957694 22.916198 -3.003395 -0.065212 -0.108599 -8.851487 7.125000 0.000000 0.000000 
